# xmcd
#
# Track frame offsets:
#	150
#	28242
#	49057
#	65822
#	93272
#	117507
#	146267
#	172870
#	213225
#	246635
#	267942
#	295597
#
# Disc length: 4420
#
# Revision: 3
# Processed by: cddbd v1.5.1PL0 Copyright (c) Steve Scherf et al.
# Submitted via: CDex 1.40Beta6
# Normalized: r2:TDELIM( - )
#
DISCID=b311420c
DTITLE=Marques Wyatt - United DJ's Vol.20
DYEAR=2003
DGENRE=House
TTITLE0=The Lost Tribes of Ibadan - Hit It Off
TTITLE1=E Smoove - Life Rythms
TTITLE2=Ron Trent Presents - The Kings Dub
TTITLE3=Nilo - Be My Friend
TTITLE4=Larry Douglas - Let There Be Light
TTITLE5=Dennis Ferrer - Reach for Freedom
TTITLE6=Abicah Soul - Chuckie's Turn
TTITLE7=Universal Love - Ritmo Da Rua
TTITLE8=DJ Oja and Una - We Lift Our Hands In The Sanctuary
TTITLE9=Crue L-Grand Orchestra - You Are More Than Paradise
TTITLE10=Baz Blaze - Breathe
TTITLE11=Jazz Tronic - Rita
EXTD=
EXTT0=
EXTT1=
EXTT2=
EXTT3=
EXTT4=
EXTT5=
EXTT6=
EXTT7=
EXTT8=
EXTT9=
EXTT10=
EXTT11=
PLAYORDER=
